<svg height="600pt" viewBox="0 0 600 600" width="600pt" xmlns="http://www.w3.org/2000/svg"><path d="m110 80h380v40h20v-70c-.035156-27.601562-22.398438-49.9648438-50-50h-320c-27.601562.0351562-49.964844 22.398438-50 50v70h20zm30-60h320c16.566406 0 30 13.433594 30 30v10h-380v-10c0-16.566406 13.433594-30 30-30zm0 0"/><path d="m450 100h20v20h-20zm0 0"/><path d="m410 100h20v20h-20zm0 0"/><path d="m370 100h20v20h-20zm0 0"/><path d="m130 100h20v20h-20zm0 0"/><path d="m320 550h-40c-5.523438 0-10 4.476562-10 10s4.476562 10 10 10h40c5.523438 0 10-4.476562 10-10s-4.476562-10-10-10zm0 0"/><path d="m240 500h120c5.523438 0 10-4.476562 10-10v-40c0-5.523438-4.476562-10-10-10h-120c-5.523438 0-10 4.476562-10 10v40c0 5.523438 4.476562 10 10 10zm10-40h100v20h-100zm0 0"/><path d="m590 440h-120c-5.523438 0-10 4.476562-10 10v40c0 5.523438 4.476562 10 10 10h20v20h-380v-20h20c5.523438 0 10-4.476562 10-10v-40c0-5.523438-4.476562-10-10-10h-120c-5.523438 0-10 4.476562-10 10v40c0 5.523438 4.476562 10 10 10h80v50c.035156 27.601562 22.398438 49.964844 50 50h320c27.601562-.035156 49.964844-22.398438 50-50v-50h80c5.523438 0 10-4.476562 10-10v-40c0-5.523438-4.476562-10-10-10zm-570 20h100v20h-100zm440 120h-320c-16.566406 0-30-13.433594-30-30v-10h380v10c0 16.566406-13.433594 30-30 30zm120-100h-100v-20h100zm0 0"/><path d="m290 380h20v50h-20zm0 0"/><path d="m540 430v-20c0-5.523438-4.476562-10-10-10h-180v-20h-20v30c0 5.523438 4.476562 10 10 10h180v10zm0 0"/><path d="m70 400c-5.523438 0-10 4.476562-10 10v20h20v-10h180c5.523438 0 10-4.476562 10-10v-30h-19c5.492188-2.792969 10.6875-6.148438 15.5-10h133.5c1.605469-.003906 3.183594-.4375 4.570312-1.25 44.6875-7.3125 76.96875-46.71875 75.34375-91.972656-1.628906-45.253906-36.648437-82.242188-81.746093-86.339844-20.550781-40.6875-64.074219-64.480469-109.421875-59.820312-45.347656 4.65625-83.125 36.804687-94.976563 80.824218-34.699219 6.222656-62.566406 32.132813-71.304687 66.289063-8.730469 34.152343 3.28125 70.261719 30.734375 92.378906 27.449219 22.117187 65.285156 26.171875 96.800781 10.367187v19.523438zm70-100c-.125-35.976562 27.132812-66.140625 62.9375-69.640625 4.382812-.433594 7.964844-3.683594 8.820312-8 7.730469-38.539063 39.578126-67.609375 78.664063-71.792969s76.367187 17.480469 92.078125 53.515625c1.566406 3.589844 5.082031 5.933594 9 5.996094 36.667969.707031 66.554688 29.625 68.476562 66.25 1.917969 36.621094-24.785156 68.507813-61.179687 73.042969-.789063.101562-1.5625.3125-2.296875.621094h-133.710938c-2.433593 0-4.78125.886718-6.609374 2.5-20.617188 18.203124-49.988282 22.625-75.050782 11.300781-25.066406-11.324219-41.164062-36.289063-41.128906-63.792969zm0 0"/><path d="m0 180h20v20h-20zm0 0"/><path d="m30 180h80v20h-80zm0 0"/><path d="m0 220h20v20h-20zm0 0"/><path d="m30 220h80v20h-80zm0 0"/><path d="m490 180h20v20h-20zm0 0"/><path d="m520 180h80v20h-80zm0 0"/><path d="m490 220h20v20h-20zm0 0"/><path d="m520 220h80v20h-80zm0 0"/></svg>