<svg id="Layer_1" enable-background="new 0 0 512.001 512.001" height="512" viewBox="0 0 512.001 512.001" width="512" xmlns="http://www.w3.org/2000/svg"><g><path d="m497.361 220.175-51.36-38.833v-171.342c0-5.523-4.477-10-10-10h-360c-5.523 0-10 4.477-10 10v171.343l-52.618 39.784c-8.372 6.319-13.375 16.333-13.382 26.794v230.472c0 18.532 15.077 33.608 33.608 33.608h444.783c18.532 0 33.608-15.077 33.608-33.608v-230.472c.001-11.118-5.466-21.466-14.639-27.746zm-477.36 78.562 92.29 69.779-92.29 69.78zm108.87 57.242-2.869-2.169v-293.809h259.998v293.809l-2.869 2.169-106.271-80.351c-6.057-4.573-13.261-6.989-20.82-6.989-.019 0-.04 0-.061 0-7.575 0-14.78 2.417-20.842 6.994zm363.13-57.242v139.557l-92.289-69.779zm-6.497-62.453c.149.113.302.221.457.326 3.782 2.54 6.04 6.768 6.04 11.312v25.743l-46 34.78v-102.029zm-59.503-216.284v303.565l-20.001 15.123v-288.687c0-5.523-4.477-10-10-10h-279.998c-5.523 0-10 4.477-10 10v288.687l-20.001-15.123v-303.565zm-400.562 217.085 40.562-30.669v102.027l-46-34.78v-25.735c.003-4.284 1.983-8.235 5.438-10.843zm452.953 254.916h-444.783c-7.504 0-13.608-6.104-13.608-13.608v-15.024l227.192-171.779c2.558-1.931 5.595-2.951 8.803-2.951h.026c3.191 0 6.229 1.021 8.78 2.947l227.198 171.782v15.025c.001 7.504-6.104 13.608-13.608 13.608z"/><path d="m246.24 220.097 21.214 21.214c9.741 9.014 23.154-4.411 14.143-14.143l-21.081-21.081c19.243-17.755 34.346-25.019 64.404-37.462 3.086-1.278 5.331-4.012 5.982-7.288.652-3.276-.375-6.662-2.736-9.023l-63.641-63.641c-2.362-2.362-5.75-3.39-9.023-2.736-3.276.652-6.01 2.896-7.288 5.982-13.949 33.695-21.391 48.598-44.401 71.608l-14.142 14.143c-11.696 11.697-11.696 30.729 0 42.426l7.071 7.071c11.128 11.606 31.298 11.605 42.426 0zm14.655-106.768 42.615 42.615c-21.657 9.386-37.837 18.166-57.136 36.002l-21.481-21.481c17.837-19.299 26.617-35.48 36.002-57.136zm-35.869 99.696c-3.683 3.847-10.458 3.847-14.141 0l-7.071-7.071c-3.899-3.899-3.899-10.243 0-14.142l7.071-7.071 21.213 21.213z"/></g></svg>