<svg id="Capa_1" enable-background="new 0 0 512 512" height="512" viewBox="0 0 512 512" width="512" xmlns="http://www.w3.org/2000/svg"><g><path d="m286.315 130.019h-60.629c-8.288 0-15.007 6.715-15.007 14.998v19.502c-3.906 1.919-7.687 4.084-11.327 6.488l-16.855-9.727c-7.175-4.138-16.358-1.686-20.501 5.49l-30.315 52.479c-4.145 7.173-1.684 16.345 5.493 20.486l16.096 9.287c-.363 4.683-.407 9.355-.131 14.027l-15.965 9.213c-7.177 4.142-9.637 13.314-5.493 20.486l30.315 52.479c4.138 7.168 13.322 9.634 20.501 5.49l15.256-8.803c4.126 2.837 8.442 5.363 12.926 7.565v17.501c0 8.283 6.719 14.998 15.007 14.998h60.629c8.288 0 15.007-6.715 15.007-14.998v-17.5c4.485-2.201 8.8-4.727 12.926-7.565l15.256 8.803c7.172 4.137 16.359 1.685 20.501-5.49l30.315-52.479c4.144-7.173 1.684-16.344-5.493-20.486l-15.965-9.212c.271-4.589.239-9.259-.13-14.028l16.095-9.287c7.177-4.141 9.638-13.314 5.493-20.486l-30.315-52.479c-4.139-7.17-13.32-9.63-20.501-5.49l-16.855 9.727c-3.639-2.404-7.421-4.57-11.327-6.488v-19.502c0-8.284-6.719-14.999-15.007-14.999zm15.848 70.478c4.83 3.952 11.605 4.499 17.01 1.383l12.342-7.123 15.307 26.501-11.751 6.78c-5.501 3.173-8.406 9.464-7.255 15.707 1.519 8.225 1.609 16.704.26 25.002-1 6.151 1.909 12.278 7.309 15.393l11.438 6.6-15.308 26.501-10.928-6.307c-5.506-3.176-12.416-2.544-17.25 1.583-6.628 5.655-14.099 10.035-22.205 13.016-5.903 2.171-9.825 7.789-9.825 14.075v12.375h-30.615v-12.375c0-6.285-3.922-11.904-9.824-14.075-8.108-2.982-15.58-7.361-22.206-13.016-4.833-4.124-11.743-4.758-17.25-1.583l-10.928 6.307-15.308-26.501 11.438-6.6c5.399-3.115 8.309-9.241 7.31-15.39-1.35-8.306-1.26-16.759.259-25.008 1.15-6.241-1.756-12.53-7.255-15.704l-11.751-6.78 15.307-26.501 12.343 7.123c5.407 3.118 12.18 2.571 17.011-1.384 6.333-5.181 13.409-9.229 21.029-12.031 5.903-2.171 9.825-7.789 9.825-14.075v-14.375h30.615v14.375c0 6.286 3.922 11.905 9.825 14.075 7.62 2.802 14.696 6.85 21.031 12.032z"/><path d="m210.981 256.999c0 24.809 20.195 44.993 45.019 44.993s45.019-20.184 45.019-44.993c0-24.81-20.195-44.994-45.019-44.994s-45.019 20.184-45.019 44.994zm60.023 0c0 8.269-6.731 14.997-15.004 14.997-8.274 0-15.004-6.728-15.004-14.997 0-8.27 6.731-14.998 15.004-14.998 8.274 0 15.004 6.727 15.004 14.998z"/><path d="m232.603 420.294c-24.55-3.443-47.541-12.17-68.332-25.942-96.995-64.238-99.266-206.503-4.649-273.519l7.341 16.947c5.32 12.282 22.832 11.96 27.732-.454l33.081-83.798c3.042-7.705-.742-16.415-8.451-19.455l-83.662-32.991c-12.394-4.888-24.582 7.672-19.281 19.908l6.937 16.018c-160.637 97.269-165.146 328.798-8.785 432.355 32.094 21.257 67.561 34.747 105.418 40.098 8.221 1.159 15.795-4.559 16.959-12.738l8.464-59.464c1.168-8.208-4.554-15.812-12.772-16.965zm-23.225 56.88c-27.877-5.833-54.144-16.839-78.263-32.815-142.98-94.694-131.522-307.918 18.378-387.733 5.5-2.929 8.473-8.831 7.878-14.737l36.978 14.582-14.258 36.117c-1.72-3.798-4.946-6.714-8.909-8.039-4.04-1.352-8.467-.924-12.17 1.178-126.284 71.611-133.268 252.865-11.322 333.629 20.329 13.466 42.451 22.85 65.933 27.99z"/><path d="m397.466 42.635c-32.094-21.257-67.562-34.747-105.418-40.098-8.209-1.157-15.794 4.543-16.959 12.738l-8.464 59.464c-1.167 8.207 4.554 15.812 12.773 16.964 24.55 3.443 47.541 12.17 68.332 25.942 96.995 64.238 99.266 206.503 4.649 273.519l-7.341-16.947c-5.32-12.282-22.832-11.96-27.732.454l-33.081 83.798c-3.042 7.705.742 16.415 8.451 19.455l83.662 32.991c12.436 4.903 24.561-7.72 19.281-19.908l-6.937-16.018c160.636-97.268 165.145-328.798 8.784-432.354zm-34.959 412.737c-5.5 2.929-8.473 8.831-7.878 14.737l-36.978-14.582 14.258-36.117c1.72 3.798 4.946 6.714 8.909 8.039 4.04 1.353 8.467.924 12.17-1.178 126.284-71.611 133.268-252.865 11.322-333.629-20.329-13.466-42.451-22.85-65.933-27.99l4.245-29.829c27.877 5.833 54.144 16.839 78.263 32.815 142.98 94.694 131.522 307.918-18.378 387.734z"/></g></svg>